<svg xmlns="http://www.w3.org/2000/svg" width="1005" height="600"><rect width="1005" height="600" x="0" y="0" fill="#FFFFFF" id="background"/><g transform="translate(402.5,300)" id="viz"><path fill="#8c564b" display="" d="M0.9999920729479248,-287.99826391118063A288,288,0,0,1,125.94226266540089,-259.0029854552244L62.96152194422902,-130.61717633782462A145,145,0,0,0,0.999992072947915,-144.99655173780528Z"><title>Drama</title></path><path fill="#1f77b4" display="" d="M127.73783265467135,-258.12215346360176A288,288,0,1,1,-230.52774901995116,172.62953667259382L-115.76601360571372,87.31111094151593A145,145,0,1,0,64.75709193349948,-129.736344346202Z"><title>Action</title></path><path fill="#d62728" display="" d="M-231.72098996945857,171.02450937679686A288,288,0,0,1,-236.766609340726,163.96820637335776L-118.92202072742316,82.96115347622846A145,145,0,0,0,-116.95925455522111,85.70608364571906Z"><title>Biography</title></path><path fill="#e377c2" display="" d="M-237.89955256943068,162.3200631076291A288,288,0,0,1,-252.33924642030672,138.8124804044353L-126.80573498007675,70.32286666627391A145,145,0,0,0,-120.05496395612782,81.31301021049983Z"><title>Family</title></path><path fill="#ff7f0e" display="" d="M-253.29712405374914,137.05680189651156A288,288,0,0,1,-276.86653167234994,-79.3027341251464L-139.53051348951342,-39.44915468489421A145,145,0,0,0,-127.76361261351917,68.56718815835023Z"><title>Adventure</title></path><path fill="#2ca02c" display="" d="M-276.3091500450512,-81.22347937253983A288,288,0,0,1,-41.317325975658065,-285.0208388420419L-21.29339748964456,-143.42800013716987A145,145,0,0,0,-138.9731318622147,-41.36989993228756Z"><title>Animation</title></path><path fill="#7f7f7f" display="" d="M-39.33704596167616,-285.30088821279367A288,288,0,0,1,-24.96863776659459,-286.9156097671937L-13.06560206837054,-144.41014522044838A145,145,0,0,0,-19.31311747566272,-143.70804950792163Z"><title>Horror</title></path><path fill="#bcbd22" display="" d="M-22.975594008828498,-287.08208247806317A288,288,0,0,1,-10.179843644829766,-287.8200319355253L-5.621457962590925,-144.8909907840195A145,145,0,0,0,-11.072558310604515,-144.57661793131786Z"><title>Musical</title></path><path fill="#9467bd" display="" d="M-8.18087585663622,-287.88378431272974A288,288,0,0,1,-0.9999920729477042,-287.99826391118063L-0.9999920729477718,-144.99655173780528A145,145,0,0,0,-3.6224901743974454,-144.95474316122392Z"><title>Crime</title></path></g><g id="labels" transform="translate(402.5,300)" text-anchor="middle"><text transform="rotate(90) translate(72.5,0) rotate(180)"><tspan x="0" y="4" style="font-family: Arial, sans-serif; font-size: 10px; fill: black; font-weight: normal; font-style: italic;"/></text><text transform="rotate(-76.93467543986304) translate(217.5,0) rotate(0)"><tspan x="0" y="4" style="font-family: Arial, sans-serif; font-size: 10px; fill: black; font-weight: bold;">3519</tspan></text><text transform="rotate(39.751036488521294) translate(217.5,0) rotate(0)"><tspan x="0" y="4" style="font-family: Arial, sans-serif; font-size: 10px; fill: black; font-weight: bold;">27909</tspan></text><text transform="rotate(144.4332831418494) translate(217.5,0) rotate(180)"><tspan x="0" y="4" style="font-family: Arial, sans-serif; font-size: 10px; fill: black; font-weight: bold;">286</tspan></text><text transform="rotate(148.43938862647224) translate(217.5,0) rotate(180)"><tspan x="0" y="4" style="font-family: Arial, sans-serif; font-size: 10px; fill: black; font-weight: bold;">793</tspan></text><text transform="rotate(173.78292526969335) translate(217.5,0) rotate(180)"><tspan x="0" y="4" style="font-family: Arial, sans-serif; font-size: 10px; fill: black; font-weight: bold;">6033</tspan></text><text transform="rotate(229.06643839854792) translate(217.5,0) rotate(180)"><tspan x="0" y="4" style="font-family: Arial, sans-serif; font-size: 10px; fill: black; font-weight: bold;">8857</tspan></text><text transform="rotate(263.5880035477817) translate(217.5,0) rotate(180)"><tspan x="0" y="4" style="font-family: Arial, sans-serif; font-size: 10px; fill: black; font-weight: bold;">441</tspan></text><text transform="rotate(266.6993255089623) translate(217.5,0) rotate(180)"><tspan x="0" y="4" style="font-family: Arial, sans-serif; font-size: 10px; fill: black; font-weight: bold;">397</tspan></text><text transform="rotate(269.0866525030425) translate(217.5,0) rotate(180)"><tspan x="0" y="4" style="font-family: Arial, sans-serif; font-size: 10px; fill: black; font-weight: bold;">246</tspan></text></g><g id="legend" transform="translate(805,10)"><g transform="translate(5,0)"><g class="legendColor" transform="translate(0,0)"><g class="legendCells" transform="translate(0,16)"><g class="cell" transform="translate(0, 0)"><rect class="swatch" height="15" width="15" style="fill: rgb(31, 119, 180);"/><text class="label" transform="translate( 20, 12.5)" font-family="&quot;Arial&quot;, sans-serif" font-size="10px"><tspan x="0" dy="0em">Action</tspan></text></g><g class="cell" transform="translate(0, 21)"><rect class="swatch" height="15" width="15" style="fill: rgb(255, 127, 14);"/><text class="label" transform="translate( 20, 12.5)" font-family="&quot;Arial&quot;, sans-serif" font-size="10px"><tspan x="0" dy="0em">Adventure</tspan></text></g><g class="cell" transform="translate(0, 42)"><rect class="swatch" height="15" width="15" style="fill: rgb(44, 160, 44);"/><text class="label" transform="translate( 20, 12.5)" font-family="&quot;Arial&quot;, sans-serif" font-size="10px"><tspan x="0" dy="0em">Animation</tspan></text></g><g class="cell" transform="translate(0, 63)"><rect class="swatch" height="15" width="15" style="fill: rgb(214, 39, 40);"/><text class="label" transform="translate( 20, 12.5)" font-family="&quot;Arial&quot;, sans-serif" font-size="10px"><tspan x="0" dy="0em">Biography</tspan></text></g><g class="cell" transform="translate(0, 84)"><rect class="swatch" height="15" width="15" style="fill: rgb(148, 103, 189);"/><text class="label" transform="translate( 20, 12.5)" font-family="&quot;Arial&quot;, sans-serif" font-size="10px"><tspan x="0" dy="0em">Crime</tspan></text></g><g class="cell" transform="translate(0, 105)"><rect class="swatch" height="15" width="15" style="fill: rgb(140, 86, 75);"/><text class="label" transform="translate( 20, 12.5)" font-family="&quot;Arial&quot;, sans-serif" font-size="10px"><tspan x="0" dy="0em">Drama</tspan></text></g><g class="cell" transform="translate(0, 126)"><rect class="swatch" height="15" width="15" style="fill: rgb(227, 119, 194);"/><text class="label" transform="translate( 20, 12.5)" font-family="&quot;Arial&quot;, sans-serif" font-size="10px"><tspan x="0" dy="0em">Family</tspan></text></g><g class="cell" transform="translate(0, 147)"><rect class="swatch" height="15" width="15" style="fill: rgb(127, 127, 127);"/><text class="label" transform="translate( 20, 12.5)" font-family="&quot;Arial&quot;, sans-serif" font-size="10px"><tspan x="0" dy="0em">Horror</tspan></text></g><g class="cell" transform="translate(0, 168)"><rect class="swatch" height="15" width="15" style="fill: rgb(188, 189, 34);"/><text class="label" transform="translate( 20, 12.5)" font-family="&quot;Arial&quot;, sans-serif" font-size="10px"><tspan x="0" dy="0em">Musical</tspan></text></g></g><text class="legendTitle" font-family="&quot;Arial&quot;, sans-serif" font-size="12px" font-weight="bold"><tspan x="0" dy="0em">Genre</tspan></text></g></g></g></svg>